<svg xmlns="http://www.w3.org/2000/svg" viewBox="0 0 24 24" fill="none"
     stroke="black" stroke-width="1" stroke-linecap="round" stroke-linejoin="round">
  <!-- Outer gear shape (simplified for cleanliness) -->
  <path vector-effect="non-scaling-stroke" d="M19.4 13.5c.04-.3.1-.6.1-.9s-.03-.6-.1-.9l2.1-1.6c.1-.1.1-.4 0-.6l-2-3.5c-.1-.2-.3-.3-.5-.2l-2.5 1a6.9 6.9 0 0 0-1.6-.9l-.4-2.7c0-.2-.2-.4-.4-.4h-4c-.2 0-.4.2-.4.4l-.4 2.7c-.6.2-1.1.5-1.6.9l-2.5-1c-.2-.1-.4 0-.5.2l-2 3.5c-.1.2-.1.5 0 .6l2.1 1.6c-.04.3-.1.6-.1.9s.03.6.1.9l-2.1 1.6c-.1.1-.1.4 0 .6l2 3.5c.1.2.3.3.5.2l2.5-1c.5.4 1 .7 1.6.9l.4 2.7c0 .2.2.4.4.4h4c.2 0 .4-.2.4-.4l.4-2.7c.6-.2 1.1-.5 1.6-.9l2.5 1c.2.1.4 0 .5-.2l2-3.5c.1-.2.1-.5 0-.6l-2.1-1.6z"/>
  
  <!-- Inner circle -->
  <circle cx="12" cy="12.5" r="2.5" vector-effect="non-scaling-stroke"/>
</svg>
