<?xml version="1.0" encoding="UTF-8"?><svg xmlns="http://www.w3.org/2000/svg" xmlns:xlink="http://www.w3.org/1999/xlink" clip-rule="evenodd" fill-rule="evenodd" height="1674.8" image-rendering="optimizeQuality" preserveAspectRatio="xMidYMid meet" shape-rendering="geometricPrecision" text-rendering="geometricPrecision" version="1.0" viewBox="-14.0 -64.7 1674.8 1674.8" width="1674.8" zoomAndPan="magnify"><g><g fill-rule="nonzero"><g id="change1_1"><path d="M42.07 1350.07l284.88 -284.23c1.44,-1.43 3.13,-2.48 4.64,-3.51 25.6,39.36 56.2,76.77 90.74,111.31 34.51,34.54 71.98,65.15 111.76,90.81 -1.4,1.47 -2.47,3.19 -3.9,4.59l-284.31 284.85c-56.28,56.19 -147.66,56.11 -203.74,0 -56.16,-56.16 -56.19,-147.58 -0.07,-203.82z" fill="#34495e"/></g><g id="change2_1"><path d="M422.32 1173.62l0.01 0.02c34.51,34.54 71.98,65.15 111.76,90.81 -1.4,1.47 -2.47,3.19 -3.9,4.59l-284.31 284.85c-56.28,56.19 -147.66,56.11 -203.74,0l380.18 -380.27z" fill="#2c3e50"/></g><g id="change3_1"><path d="M462.93 194.06c258.8,-258.76 679.83,-258.76 938.67,0.06 259.09,258.74 259.13,680.08 0.19,938.92 -258.93,258.71 -680.04,258.71 -938.86,-0.03 -258.8,-258.81 -258.78,-680.19 0,-938.95zm816.87 817.11c191.61,-191.62 191.55,-503.56 -0.07,-695 -191.62,-191.58 -503.38,-191.58 -694.93,-0.09 -191.48,191.52 -191.42,503.12 0,695.02 191.58,191.02 503.31,191.72 695,0.07z" fill="#1abc9c"/></g><g id="change4_1"><path d="M1401.6 194.12c259.09,258.74 259.13,680.08 0.19,938.92 -258.93,258.71 -680.04,258.71 -938.86,-0.03l0 0 121.88 -121.91c191.58,191.02 503.3,191.72 694.99,0.07 191.61,-191.62 191.55,-503.56 -0.07,-695l-0.08 -0.07 121.95 -121.98z" fill="#16a085"/></g><g id="change5_1"><path d="M710.8 574.13c-17.61,56.86 -80.41,133.39 -127.5,104.87 -37.37,-22.06 -20.94,-111.68 0.54,-163.96 96.28,-237.79 395.13,-270.88 423.98,-238.28 28.37,32.07 -227.24,72.33 -297.02,297.37z" fill="#95a5a6"/></g></g></g></svg>